<svg xmlns="http://www.w3.org/2000/svg" viewBox="0 0 884 884"><defs><style>.cls-1,.cls-2{fill:#fff;}.cls-2{font-size:97.6px;font-family:Inter-Bold, Inter;font-weight:700;letter-spacing:0.04em;}.cls-3{letter-spacing:0.02em;}.cls-4{letter-spacing:0em;}.cls-5{letter-spacing:0.02em;}.cls-6{letter-spacing:0.02em;}.cls-7{letter-spacing:-0.02em;}.cls-8{letter-spacing:0.04em;}.cls-9{letter-spacing:0.05em;}</style></defs><title>Asset 2</title><g id="Layer_2" data-name="Layer 2"><g id="Layer_1-2" data-name="Layer 1"><rect width="884" height="884"/><polygon class="cls-1" points="644.24 200.17 518.99 200.17 518.97 200.17 506.94 219.82 498.22 234.05 486.92 252.52 486.92 252.53 472.74 275.67 467.05 284.95 467.05 284.97 460.53 295.59 450.63 311.77 448.7 314.93 440.68 328.01 440.68 328.02 428.83 347.36 420.81 360.44 420.82 360.46 435.72 384.77 440.68 392.88 459.76 424.03 463.66 430.4 440.45 468.28 440 469.01 439.55 468.28 417.01 431.5 415.96 429.77 406.12 413.71 397.16 399.07 387.08 415.54 377.37 431.38 377.29 431.5 396.09 462.2 397.16 463.93 440 533.57 483.53 462.83 503.39 430.4 503.31 430.28 499.48 424.03 483.53 397.97 483.45 397.85 479.63 391.6 477.28 387.76 460.53 360.46 460.53 360.44 470.48 344.21 477.95 332.01 486.91 317.38 506.77 284.94 537.95 234.05 583.77 234.05 548.21 292.12 529.68 322.36 528.34 324.55 509.82 354.78 509.89 354.91 529.68 387.22 529.76 387.35 549.63 354.9 644.39 200.17 644.24 200.17"/><polygon class="cls-1" points="343.41 234.05 377.29 289.38 397.15 321.8 405.43 308.29 417.01 289.38 417.01 289.37 408.61 275.67 397.16 256.95 383.13 234.05 383.12 234.05 366.11 206.26 362.38 200.17 362.37 200.17 322.66 200.17 339.67 227.95 343.41 234.05"/><polygon class="cls-1" points="353.69 327.89 336.78 300.25 296.23 234.05 280.45 208.3 275.48 200.17 235.76 200.17 235.61 200.17 333.77 360.43 353.63 392.86 353.69 392.75 361.75 379.62 373.5 360.44 373.56 360.32 356.64 332.69 353.69 327.89"/><text class="cls-2" transform="translate(143.15 652.64)">V<tspan class="cls-3" x="76.58" y="0">E</tspan><tspan class="cls-4" x="138.65" y="0">G</tspan><tspan class="cls-5" x="213.23" y="0">A</tspan><tspan class="cls-6" x="287.98" y="0">S</tspan><tspan class="cls-7" x="354.09" y="0">W</tspan><tspan class="cls-8" x="453.02" y="0">A</tspan><tspan class="cls-9" x="529.6" y="0">P</tspan></text></g></g></svg>