<svg xmlns="http://www.w3.org/2000/svg" viewBox="0 0 586.88 453.48"><title>Asset 1</title><g id="Layer_2" data-name="Layer 2"><g id="Layer_1-2" data-name="Layer 1"><polygon points="498.77 0 373.51 0 373.5 0 361.46 19.65 352.75 33.88 341.44 52.35 341.44 52.37 327.27 75.5 321.58 84.79 321.58 84.8 315.06 95.43 305.15 111.61 303.23 114.77 295.2 127.84 295.2 127.86 283.36 147.2 275.33 160.28 275.35 160.29 290.24 184.6 295.2 192.71 314.29 223.87 318.19 230.24 294.97 268.12 294.52 268.85 294.08 268.12 271.54 231.34 270.48 229.6 260.64 213.54 251.68 198.9 241.6 215.37 231.9 231.21 231.81 231.34 250.61 262.03 251.68 263.77 294.52 333.4 338.06 262.67 357.91 230.24 357.83 230.12 354.01 223.87 338.06 197.81 337.98 197.68 334.15 191.44 331.81 187.6 315.06 160.29 315.06 160.28 325 144.04 332.47 131.84 341.43 117.22 361.3 84.77 392.47 33.88 438.29 33.88 402.73 91.96 384.2 122.19 382.86 124.39 364.35 154.61 364.42 154.75 384.2 187.06 384.29 187.18 404.15 154.73 498.92 0 498.77 0"/><polygon points="197.93 33.88 231.81 89.22 251.67 121.64 259.95 108.13 271.54 89.22 271.54 89.2 263.14 75.5 251.68 56.79 237.66 33.88 237.64 33.88 220.63 6.1 216.91 0 216.89 0 177.18 0 194.19 27.78 197.93 33.88"/><polygon points="208.22 127.72 191.31 100.09 150.75 33.88 134.98 8.13 130.01 0 90.28 0 90.13 0 188.3 160.26 208.15 192.7 208.22 192.59 216.27 179.45 228.02 160.28 228.09 160.16 211.16 132.52 208.22 127.72"/><path d="M33.82,435.43h.66l17.19-53.92H68.3l-24.46,71H24.5L0,381.51H16.67Z"/><path d="M80.43,381.51h47.82v12.37H95.43v16.91h30.36v12.37H95.43v16.95h33v12.37h-48Z"/><path d="M174.69,393.81c-10.85,0-18.23,8.35-18.23,23.11s7.1,23.25,18.37,23.25c10,0,16-5.57,16.18-14.38H175.76V414.5h29.7v8.94c0,18.68-12.79,30-30.7,30-20,0-33.51-13.93-33.51-36.39,0-23,14.45-36.52,33.2-36.52,16,0,28.41,9.87,30.35,23.91H189.55C187.65,397.79,182.42,393.81,174.69,393.81Z"/><path d="M213.23,452.48l24.5-71h19.33l24.47,71H265.45l-5.27-16.19H234.57l-5.26,16.19Zm43.17-27.9-8.73-26.85h-.55l-8.74,26.85Z"/><path d="M318.2,393.08c-7.35,0-11.4,3.36-11.4,7.94-.11,5.09,5.06,7.38,11.23,8.8l6.37,1.52c12.34,2.78,21.24,9.05,21.28,20.87,0,13-10.22,21.27-27.55,21.27s-28.21-7.93-28.59-23.28h14.52c.49,7.1,6.1,10.7,13.9,10.7,7.62,0,12.54-3.53,12.58-8.73,0-4.78-4.34-7-12.06-8.87l-7.73-1.94c-12-2.88-19.37-8.87-19.34-19.34-.07-12.89,11.33-21.48,26.89-21.48,15.8,0,26.2,8.73,26.41,21.38H330.33C329.77,396.34,325.37,393.08,318.2,393.08Z"/><path d="M353.6,381.51H370l11.75,49.31h.59l13-49.31h14l12.93,49.41h.62l11.75-49.41H451l-20.31,71H416.08l-13.51-46.4H402l-13.48,46.4H373.91Z"/><path d="M453,452.48l24.5-71h19.33l24.47,71H505.24L500,436.29H474.36l-5.27,16.19Zm43.17-27.9-8.73-26.85h-.55l-8.74,26.85Z"/><path d="M533.44,381.51h28c16.12,0,25.44,9.94,25.44,24.05s-9.5,23.91-25.82,23.91H548.45v23h-15Zm25.19,35.93c8.6,0,12.79-4.85,12.79-11.88s-4.19-11.79-12.85-11.79H548.45v23.67Z"/></g></g></svg>